<?xml version="1.0" standalone="no"?>
<!DOCTYPE svg PUBLIC "-//W3C//DTD SVG 20010904//EN"
 "http://www.w3.org/TR/2001/REC-SVG-20010904/DTD/svg10.dtd">
<svg version="1.0" xmlns="http://www.w3.org/2000/svg"
 width="256.000000pt" height="256.000000pt" viewBox="0 0 256.000000 256.000000"
 preserveAspectRatio="xMidYMid meet">
<metadata>
Created by potrace 1.11, written by Peter Selinger 2001-2013
</metadata>
<g transform="translate(0.000000,256.000000) scale(0.100000,-0.100000)"
fill="#000000" stroke="none">
<path d="M872 1938 l3 -143 565 -3 c311 -1 575 0 588 3 22 5 22 8 22 145 l0
140 -590 0 -591 0 3 -142z"/>
<path d="M500 1440 l0 -140 347 0 348 0 -348 -348 c-191 -191 -347 -352 -347
-357 0 -6 43 -53 95 -105 l95 -95 350 350 350 350 0 -348 0 -347 145 0 145 0
-2 588 -3 587 -587 3 -588 2 0 -140z"/>
</g>
</svg>
